<mxfile host="app.diagrams.net" agent="Mozilla/5.0 (Windows NT 10.0; Win64; x64; rv:126.0) Gecko/20100101 Firefox/126.0" version="24.7.14">
  <diagram name="Page-1" id="CV5-54F58t3fVXI-isut">
    <mxGraphModel dx="1109" dy="1271" grid="0" gridSize="10" guides="1" tooltips="1" connect="1" arrows="1" fold="1" page="0" pageScale="1" pageWidth="850" pageHeight="1100" math="0" shadow="0">
      <root>
        <mxCell id="0" />
        <mxCell id="1" parent="0" />
        <mxCell id="SIPOQw8wfC_lMx-YbBGW-1" value="Szeman_Balazs_orarend" style="ellipse;whiteSpace=wrap;html=1;" vertex="1" parent="1">
          <mxGeometry x="80.5" y="-77" width="201" height="77" as="geometry" />
        </mxCell>
        <mxCell id="SIPOQw8wfC_lMx-YbBGW-2" value="&lt;div&gt;Ora&lt;/div&gt;" style="ellipse;whiteSpace=wrap;html=1;" vertex="1" parent="1">
          <mxGeometry x="121" y="58" width="120" height="80" as="geometry" />
        </mxCell>
        <mxCell id="SIPOQw8wfC_lMx-YbBGW-3" value="Szak" style="ellipse;whiteSpace=wrap;html=1;" vertex="1" parent="1">
          <mxGeometry x="397" y="193" width="120" height="80" as="geometry" />
        </mxCell>
        <mxCell id="SIPOQw8wfC_lMx-YbBGW-4" value="Targy" style="ellipse;whiteSpace=wrap;html=1;" vertex="1" parent="1">
          <mxGeometry x="-155" y="193" width="120" height="80" as="geometry" />
        </mxCell>
        <mxCell id="SIPOQw8wfC_lMx-YbBGW-5" value="Idopont" style="ellipse;whiteSpace=wrap;html=1;" vertex="1" parent="1">
          <mxGeometry x="-17" y="193" width="120" height="80" as="geometry" />
        </mxCell>
        <mxCell id="SIPOQw8wfC_lMx-YbBGW-6" value="Helyszin" style="ellipse;whiteSpace=wrap;html=1;" vertex="1" parent="1">
          <mxGeometry x="121" y="193" width="120" height="80" as="geometry" />
        </mxCell>
        <mxCell id="SIPOQw8wfC_lMx-YbBGW-7" value="Oktato" style="ellipse;whiteSpace=wrap;html=1;" vertex="1" parent="1">
          <mxGeometry x="259" y="193" width="120" height="80" as="geometry" />
        </mxCell>
        <mxCell id="SIPOQw8wfC_lMx-YbBGW-8" value="Ig" style="ellipse;whiteSpace=wrap;html=1;" vertex="1" parent="1">
          <mxGeometry x="117" y="339" width="120" height="80" as="geometry" />
        </mxCell>
        <mxCell id="SIPOQw8wfC_lMx-YbBGW-9" value="Tol" style="ellipse;whiteSpace=wrap;html=1;" vertex="1" parent="1">
          <mxGeometry x="-7" y="339" width="120" height="80" as="geometry" />
        </mxCell>
        <mxCell id="SIPOQw8wfC_lMx-YbBGW-10" value="Nap" style="ellipse;whiteSpace=wrap;html=1;" vertex="1" parent="1">
          <mxGeometry x="-134" y="339" width="120" height="80" as="geometry" />
        </mxCell>
        <mxCell id="SIPOQw8wfC_lMx-YbBGW-11" value="" style="endArrow=none;html=1;rounded=0;fontSize=12;startSize=8;endSize=8;curved=1;entryX=0.5;entryY=1;entryDx=0;entryDy=0;exitX=0.5;exitY=0;exitDx=0;exitDy=0;" edge="1" parent="1" source="SIPOQw8wfC_lMx-YbBGW-2" target="SIPOQw8wfC_lMx-YbBGW-1">
          <mxGeometry width="50" height="50" relative="1" as="geometry">
            <mxPoint x="175" y="53" as="sourcePoint" />
            <mxPoint x="177" y="175" as="targetPoint" />
          </mxGeometry>
        </mxCell>
        <mxCell id="SIPOQw8wfC_lMx-YbBGW-12" value="" style="endArrow=none;html=1;rounded=0;fontSize=12;startSize=8;endSize=8;curved=1;entryX=0.5;entryY=1;entryDx=0;entryDy=0;exitX=0.5;exitY=0;exitDx=0;exitDy=0;" edge="1" parent="1" source="SIPOQw8wfC_lMx-YbBGW-4" target="SIPOQw8wfC_lMx-YbBGW-2">
          <mxGeometry width="50" height="50" relative="1" as="geometry">
            <mxPoint x="127" y="225" as="sourcePoint" />
            <mxPoint x="177" y="175" as="targetPoint" />
          </mxGeometry>
        </mxCell>
        <mxCell id="SIPOQw8wfC_lMx-YbBGW-13" value="" style="endArrow=none;html=1;rounded=0;fontSize=12;startSize=8;endSize=8;curved=1;exitX=0.5;exitY=0;exitDx=0;exitDy=0;entryX=0.5;entryY=1;entryDx=0;entryDy=0;" edge="1" parent="1" source="SIPOQw8wfC_lMx-YbBGW-5" target="SIPOQw8wfC_lMx-YbBGW-2">
          <mxGeometry width="50" height="50" relative="1" as="geometry">
            <mxPoint x="-85" y="203" as="sourcePoint" />
            <mxPoint x="181" y="144" as="targetPoint" />
          </mxGeometry>
        </mxCell>
        <mxCell id="SIPOQw8wfC_lMx-YbBGW-14" value="" style="endArrow=none;html=1;rounded=0;fontSize=12;startSize=8;endSize=8;curved=1;entryX=0.5;entryY=1;entryDx=0;entryDy=0;exitX=0.5;exitY=0;exitDx=0;exitDy=0;" edge="1" parent="1" source="SIPOQw8wfC_lMx-YbBGW-6" target="SIPOQw8wfC_lMx-YbBGW-2">
          <mxGeometry width="50" height="50" relative="1" as="geometry">
            <mxPoint x="-75" y="213" as="sourcePoint" />
            <mxPoint x="201" y="158" as="targetPoint" />
          </mxGeometry>
        </mxCell>
        <mxCell id="SIPOQw8wfC_lMx-YbBGW-15" value="" style="endArrow=none;html=1;rounded=0;fontSize=12;startSize=8;endSize=8;curved=1;entryX=0.5;entryY=1;entryDx=0;entryDy=0;exitX=0.5;exitY=0;exitDx=0;exitDy=0;" edge="1" parent="1" source="SIPOQw8wfC_lMx-YbBGW-3" target="SIPOQw8wfC_lMx-YbBGW-2">
          <mxGeometry width="50" height="50" relative="1" as="geometry">
            <mxPoint x="-65" y="223" as="sourcePoint" />
            <mxPoint x="211" y="168" as="targetPoint" />
          </mxGeometry>
        </mxCell>
        <mxCell id="SIPOQw8wfC_lMx-YbBGW-16" value="" style="endArrow=none;html=1;rounded=0;fontSize=12;startSize=8;endSize=8;curved=1;entryX=0.5;entryY=1;entryDx=0;entryDy=0;exitX=0.5;exitY=0;exitDx=0;exitDy=0;" edge="1" parent="1" source="SIPOQw8wfC_lMx-YbBGW-7" target="SIPOQw8wfC_lMx-YbBGW-2">
          <mxGeometry width="50" height="50" relative="1" as="geometry">
            <mxPoint x="-55" y="233" as="sourcePoint" />
            <mxPoint x="221" y="178" as="targetPoint" />
          </mxGeometry>
        </mxCell>
        <mxCell id="SIPOQw8wfC_lMx-YbBGW-17" value="" style="endArrow=none;html=1;rounded=0;fontSize=12;startSize=8;endSize=8;curved=1;entryX=0.5;entryY=1;entryDx=0;entryDy=0;exitX=0.5;exitY=0;exitDx=0;exitDy=0;" edge="1" parent="1" source="SIPOQw8wfC_lMx-YbBGW-8" target="SIPOQw8wfC_lMx-YbBGW-5">
          <mxGeometry width="50" height="50" relative="1" as="geometry">
            <mxPoint x="-45" y="243" as="sourcePoint" />
            <mxPoint x="231" y="188" as="targetPoint" />
          </mxGeometry>
        </mxCell>
        <mxCell id="SIPOQw8wfC_lMx-YbBGW-18" value="" style="endArrow=none;html=1;rounded=0;fontSize=12;startSize=8;endSize=8;curved=1;entryX=0.5;entryY=1;entryDx=0;entryDy=0;exitX=0.5;exitY=0;exitDx=0;exitDy=0;" edge="1" parent="1" source="SIPOQw8wfC_lMx-YbBGW-9" target="SIPOQw8wfC_lMx-YbBGW-5">
          <mxGeometry width="50" height="50" relative="1" as="geometry">
            <mxPoint x="-35" y="253" as="sourcePoint" />
            <mxPoint x="241" y="198" as="targetPoint" />
          </mxGeometry>
        </mxCell>
        <mxCell id="SIPOQw8wfC_lMx-YbBGW-19" value="" style="endArrow=none;html=1;rounded=0;fontSize=12;startSize=8;endSize=8;curved=1;entryX=0.5;entryY=1;entryDx=0;entryDy=0;exitX=0.5;exitY=0;exitDx=0;exitDy=0;" edge="1" parent="1" source="SIPOQw8wfC_lMx-YbBGW-10" target="SIPOQw8wfC_lMx-YbBGW-5">
          <mxGeometry width="50" height="50" relative="1" as="geometry">
            <mxPoint x="-25" y="263" as="sourcePoint" />
            <mxPoint x="251" y="208" as="targetPoint" />
          </mxGeometry>
        </mxCell>
      </root>
    </mxGraphModel>
  </diagram>
</mxfile>
